<?xml version="1.0"?>
<svg xmlns="http://www.w3.org/2000/svg" id="Layer_1" data-name="Layer 1" viewBox="0 0 512 512" width="512" height="512"><title>quality certification</title><path d="M422.88,410.92V502l-54.14-51.81L314.6,502V410.92a81.622,81.622,0,0,0,108.28,0Z" style="fill:#f8ec7d"/><polygon points="412.87 341.27 385.6 360.56 396.02 391.76 368.74 372.48 341.47 391.76 351.89 360.56 324.61 341.27 358.32 341.27 368.74 310.07 379.16 341.27 412.87 341.27" style="fill:#f8ec7d"/><path d="M314.6,410.92c-.13-.11-.25-.22-.37-.33a76.708,76.708,0,0,1-25.49-56.98,75.778,75.778,0,0,1,9.43-36.69,80.294,80.294,0,0,1,70.57-41.17c44.19,0,80,34.86,80,77.86a76.708,76.708,0,0,1-25.86,57.31,81.622,81.622,0,0,1-108.28,0Zm71-50.36,27.27-19.29H379.16l-10.42-31.2-10.42,31.2H324.61l27.28,19.29-10.42,31.2,27.27-19.28,27.28,19.28Z" style="fill:#6fe3ff"/><path d="M314.23,410.59H63.26V365.06a44.553,44.553,0,0,1,1.08-10.17c.14-.6.29-1.2.46-1.79a47.424,47.424,0,0,1,31.35-32.22l66.67-21.62a84.972,84.972,0,0,0,80.87,0l54.48,17.66a75.778,75.778,0,0,0-9.43,36.69A76.708,76.708,0,0,0,314.23,410.59Z" style="fill:#e48e66"/><path d="M243.59,262.67a84.5,84.5,0,0,1-123.38-58.64l-4.69-16.15v-.14a22.822,22.822,0,0,1-18.19-27.88A17.143,17.143,0,0,1,112.6,146.8v.53a12.018,12.018,0,0,0,6.15,1.7,12.165,12.165,0,0,0,12.16-11.61l1.5-32.93a272.018,272.018,0,0,0,32.09-.82c51.97,46.31,129.45,43.34,129.45,43.34v-.21a17.155,17.155,0,0,1,15.23,13.06A22.8,22.8,0,0,1,291,187.74v.14l-4.7,16.15A84.433,84.433,0,0,1,243.59,262.67Z" style="fill:#f7caa5"/><path d="M293.95,146.8v.21s-77.48,2.97-129.45-43.34a268.082,268.082,0,0,0,48.7-8.16s25.57,32.9,80.75,36.45Z" style="fill:#494f4f"/><path d="M112.6,146.8V100.68a90.675,90.675,0,1,1,181.35,0v31.28c-55.18-3.55-80.75-36.45-80.75-36.45a268.082,268.082,0,0,1-48.7,8.16,272.018,272.018,0,0,1-32.09.82l-1.5,32.93a12.165,12.165,0,0,1-12.16,11.61,12.018,12.018,0,0,1-6.15-1.7Z" style="fill:#5f6768"/><path d="M243.59,299.23l.1.03a84.972,84.972,0,0,1-80.87,0l.1-.03V262.67a84.487,84.487,0,0,0,80.67,0Z" style="fill:#edb288"/></svg>
