<svg id="Capa_1" enable-background="new 0 0 512.339 512.339" height="512" viewBox="0 0 512.339 512.339" width="512" xmlns="http://www.w3.org/2000/svg"><g><g><path d="m472.159 258.488c-12.143 0-21.987 9.844-21.987 21.986v-103.022c0-12.143-9.844-21.987-21.987-21.987s-21.987 9.844-21.987 21.987v-21.833c0-12.143-9.844-21.986-21.987-21.986s-21.987 9.844-21.987 21.986v21.833c0-12.143-9.844-21.987-21.987-21.987s-21.987 9.844-21.987 21.987v51.019c0-12.143-9.844-21.987-21.987-21.987-12.143 0-21.987 9.844-21.987 21.987v144.171c0 15.442 4.578 30.538 13.156 43.379l16.519 24.729c8.577 12.841 13.156 27.937 13.156 43.379v20.704h133.063v-17.094c0-17.355 5.781-34.216 16.43-47.92l11.112-14.3c10.649-13.704 16.43-30.565 16.43-47.92v-97.124c.003-12.143-9.841-21.987-21.983-21.987z" fill="#f6a96c"/></g><g><path d="m18.194 280.474v97.124c0 17.355 5.781 34.216 16.43 47.92l11.112 14.3c10.649 13.704 16.43 30.565 16.43 47.92v17.094h133.064v-20.704c0-15.442 4.578-30.538 13.156-43.379l16.519-24.729c8.577-12.841 13.156-27.937 13.156-43.379v-144.17c0-12.143-9.844-21.987-21.987-21.987-12.143 0-21.987 9.844-21.987 21.987v-51.019c0-12.143-9.844-21.987-21.987-21.987s-21.987 9.844-21.987 21.987v-21.833c0-12.143-9.844-21.986-21.987-21.986s-21.987 9.844-21.987 21.986v21.833c0-12.143-9.844-21.987-21.987-21.987s-21.987 9.844-21.987 21.987v103.022c0-12.143-9.844-21.986-21.987-21.986-12.14 0-21.984 9.844-21.984 21.986z" fill="#f6a96c"/></g><g><path d="m472.159 258.484c-3.658 0-7.124.894-10.163 2.49 7.022 3.669 11.819 11.026 11.819 19.502v92.54c0 17.358-5.772 34.217-16.423 47.916l-11.118 14.299c-10.65 13.709-16.433 35.152-16.433 52.51v17.093h20.325v-17.093c0-17.358 5.782-34.217 16.433-47.927l11.118-14.299c10.65-13.699 16.423-30.559 16.423-47.916v-97.123c0-12.144-9.837-21.992-21.981-21.992z" fill="#ea9b58"/></g><g><path d="m362.231 177.451v172.375h-3.131c-9.496 0-17.194-7.698-17.194-17.194v-155.181c0-6.067-2.459-11.565-6.443-15.549-1.575-1.575-3.394-2.907-5.386-3.943 3.039-1.596 6.494-2.49 10.163-2.49 6.067 0 11.575 2.459 15.549 6.433 3.982 3.984 6.442 9.482 6.442 15.549z" fill="#ea9b58"/></g><g><path d="m318.257 228.466v121.36h-3.293c-9.496 0-17.194-7.698-17.194-17.194v-104.166c0-8.435-4.756-15.762-11.738-19.451 3.049-1.616 6.534-2.53 10.234-2.53 12.144 0 21.991 9.847 21.991 21.981z" fill="#ea9b58"/></g><g><path d="m406.194 155.621v194.205h-5.011c-9.496 0-17.194-7.698-17.194-17.194v-177.01c0-6.067-2.459-11.575-6.443-15.549-1.321-1.321-2.815-2.48-4.441-3.435 3.252-1.91 7.053-3.008 11.108-3.008 6.077 0 11.565 2.46 15.549 6.443 3.972 3.973 6.432 9.481 6.432 15.548z" fill="#ea9b58"/></g><g><path d="m450.167 177.451v172.375h-4.787c-9.496 0-17.194-7.698-17.194-17.194v-155.181c0-6.067-2.459-11.565-6.443-15.549-1.352-1.351-2.886-2.53-4.553-3.486 3.232-1.88 6.992-2.947 10.996-2.947 6.067 0 11.565 2.459 15.549 6.433 3.973 3.984 6.432 9.482 6.432 15.549z" fill="#ea9b58"/></g><g><path d="m216.078 206.481c-3.993 0-7.736 1.061-10.969 2.942 6.585 3.793 11.009 10.898 11.009 19.045v144.173c0 15.442-4.574 30.534-13.15 43.384l-16.523 24.729c-8.577 12.84-13.15 27.932-13.15 43.374v20.706h21.937v-20.706c0-15.442 4.574-30.534 13.15-43.374l16.523-24.729c8.577-12.85 13.15-27.942 13.15-43.384v-144.173c0-12.139-9.837-21.987-21.977-21.987z" fill="#ea9b58"/></g><g><path d="m106.15 428.686h-7.233c-7.47 0-14.237-4.329-17.456-11.071-8.509-17.82-20.935-27.169-29.594-31.817-6.181-3.318-10.025-9.767-10.025-16.782v-88.541c0-8.476-4.797-15.833-11.819-19.502 3.039-1.595 6.494-2.49 10.163-2.49 12.134 0 21.982 9.847 21.982 21.992v82.611c-.001.001 41.574 17.603 43.982 65.6z" fill="#ea9b58"/></g><g><path d="m194.082 177.451v172.375h-3.131c-9.496 0-17.194-7.698-17.194-17.194v-155.181c0-6.067-2.459-11.565-6.443-15.549-1.575-1.575-3.394-2.907-5.386-3.943 3.039-1.596 6.494-2.49 10.163-2.49 6.067 0 11.575 2.459 15.549 6.433 3.983 3.984 6.442 9.482 6.442 15.549z" fill="#ea9b58"/></g><g><path d="m150.114 155.621v194.205h-5.011c-9.496 0-17.194-7.698-17.194-17.194v-177.01c0-6.067-2.459-11.575-6.443-15.549-1.321-1.321-2.815-2.48-4.441-3.435 3.252-1.91 7.053-3.008 11.108-3.008 6.077 0 11.565 2.46 15.549 6.443 3.972 3.973 6.432 9.481 6.432 15.548z" fill="#ea9b58"/></g><g><path d="m106.186 177.451v172.375h-4.787c-9.496 0-17.194-7.698-17.194-17.194v-155.181c0-6.067-2.459-11.565-6.443-15.549-1.352-1.351-2.886-2.53-4.553-3.486 3.232-1.88 6.992-2.947 10.996-2.947 6.067 0 11.565 2.459 15.549 6.433 3.973 3.984 6.432 9.482 6.432 15.549z" fill="#ea9b58"/></g><g><path d="m472.159 250.982c-5.258 0-10.201 1.384-14.481 3.806v-77.335c0-16.262-13.23-29.492-29.492-29.492-5.355 0-10.381 1.434-14.714 3.94-1.834-14.513-14.256-25.772-29.259-25.772s-27.425 11.259-29.259 25.772c-4.333-2.505-9.36-3.94-14.715-3.94-16.262 0-29.492 13.23-29.492 29.492v25.332c-4.28-2.422-9.222-3.806-14.481-3.806-16.262 0-29.492 13.23-29.492 29.493v22.189c0 4.145 3.361 7.506 7.506 7.506s7.506-3.361 7.506-7.506v-22.189c0-7.985 6.496-14.481 14.481-14.481s14.481 6.496 14.481 14.481c0 .036.005.071.005.106v114.227c0 4.146 3.361 7.506 7.506 7.506s7.506-3.36 7.506-7.506l-.005-165.352c0-7.985 6.496-14.481 14.481-14.481s14.481 6.496 14.481 14.481v165.352c0 4.146 3.361 7.506 7.506 7.506s7.506-3.36 7.506-7.506v-187.185c0-7.985 6.496-14.481 14.481-14.481s14.481 6.496 14.481 14.481l-.046 187.185c0 4.146 3.361 7.506 7.506 7.506s7.506-3.36 7.506-7.506c0 0 .046-165.077.046-165.352 0-7.985 6.496-14.481 14.481-14.481s14.481 6.496 14.481 14.481v181.004c-11.739 6.451-41.83 27.076-43.969 69.853-.207 4.14 2.981 7.664 7.122 7.871 4.157.213 7.664-2.982 7.871-7.122 2.125-42.508 37.908-58.412 39.408-59.059 2.777-1.175 4.58-3.897 4.58-6.912v-82.614c0-7.985 6.496-14.48 14.481-14.48s14.481 6.496 14.481 14.48v97.124c0 15.608-5.274 30.991-14.852 43.315l-11.112 14.3c-11.614 14.945-18.01 33.599-18.01 52.526v9.588h-118.055v-13.197c0-16.984-4.986-33.426-14.42-47.549l-16.518-24.729c-7.779-11.647-11.891-25.205-11.891-39.211v-87.004c0-4.145-3.361-7.506-7.506-7.506s-7.506 3.361-7.506 7.506v87.004c0 16.983 4.986 33.425 14.42 47.549l16.518 24.729c7.78 11.646 11.891 25.204 11.891 39.21v20.704c0 4.145 3.361 7.506 7.506 7.506h133.063c4.145 0 7.506-3.361 7.506-7.506v-17.094c0-15.608 5.274-30.99 14.851-43.314l11.112-14.3c11.614-14.945 18.01-33.599 18.01-52.526v-97.124c0-16.263-13.23-29.493-29.492-29.493z"/><path d="m216.074 198.978c-5.259 0-10.201 1.384-14.481 3.806v-25.332c0-16.262-13.23-29.492-29.492-29.492-5.355 0-10.381 1.435-14.715 3.94-1.834-14.513-14.256-25.772-29.259-25.772s-27.425 11.259-29.259 25.772c-4.333-2.505-9.359-3.94-14.714-3.94-16.262 0-29.492 13.23-29.492 29.492v77.335c-4.28-2.422-9.222-3.806-14.481-3.806-16.262 0-29.492 13.23-29.492 29.492v62.33c0 4.146 3.361 7.506 7.506 7.506s7.506-3.36 7.506-7.506v-62.33c0-7.985 6.496-14.48 14.481-14.48s14.481 6.496 14.481 14.48v82.614c0 2.996 1.806 5.716 4.558 6.902 1.522.656 37.305 16.561 39.43 59.068.201 4.012 3.517 7.131 7.49 7.131.127 0 .254-.003.381-.009 4.141-.207 7.329-3.731 7.122-7.871-2.139-42.777-32.23-63.402-43.969-69.853v-181.003c0-7.985 6.496-14.481 14.481-14.481s14.481 6.496 14.481 14.481l.046 165.352c0 4.146 3.361 7.506 7.506 7.506s7.506-3.36 7.506-7.506l-.046-187.185c0-7.985 6.496-14.481 14.481-14.481s14.481 6.496 14.481 14.481v187.185c0 4.146 3.361 7.506 7.506 7.506s7.506-3.36 7.506-7.506v-165.352c0-7.985 6.496-14.481 14.481-14.481s14.481 6.496 14.481 14.481l-.005 165.352c0 4.146 3.361 7.506 7.506 7.506s7.506-3.36 7.506-7.506v-114.227c0-.036.005-.07.005-.106 0-7.985 6.496-14.481 14.481-14.481s14.481 6.496 14.481 14.481v144.171c0 14.005-4.112 27.564-11.891 39.21l-16.519 24.729c-9.433 14.122-14.42 30.564-14.42 47.549v13.198h-118.056v-9.588c0-18.927-6.396-37.581-18.01-52.526l-11.112-14.3c-9.577-12.325-14.851-27.707-14.851-43.316 0-4.145-3.361-7.506-7.506-7.506s-7.506 3.361-7.506 7.506c0 18.927 6.396 37.582 18.009 52.526l11.113 14.3c9.577 12.324 14.851 27.707 14.851 43.314v17.094c0 4.145 3.361 7.506 7.506 7.506h133.063c4.145 0 7.506-3.361 7.506-7.506v-20.702c0-14.006 4.112-27.564 11.891-39.21l16.519-24.729c9.433-14.123 14.42-30.565 14.42-47.548v-144.172c0-16.263-13.23-29.493-29.492-29.493z"/><path d="m256.17 0c-4.145 0-7.506 3.361-7.506 7.506v35.691c0 4.146 3.361 7.506 7.506 7.506s7.506-3.36 7.506-7.506v-35.691c0-4.145-3.361-7.506-7.506-7.506z"/><path d="m190.422 62.825c1.39 2.408 3.913 3.754 6.507 3.754 1.273 0 2.564-.324 3.746-1.007 3.59-2.072 4.82-6.663 2.747-10.253l-17.846-30.91c-2.072-3.59-6.662-4.82-10.253-2.747-3.59 2.073-4.82 6.663-2.747 10.253z"/><path d="m118.888 91.099 30.91 17.845c1.182.683 2.473 1.007 3.746 1.007 2.594 0 5.117-1.347 6.507-3.754 2.073-3.59.843-8.181-2.747-10.253l-30.91-17.845c-3.59-2.074-8.181-.843-10.253 2.747-2.073 3.59-.843 8.181 2.747 10.253z"/><path d="m358.796 109.952c1.273 0 2.564-.325 3.746-1.007l30.91-17.845c3.59-2.073 4.82-6.663 2.747-10.253-2.072-3.59-6.663-4.821-10.253-2.747l-30.91 17.845c-3.59 2.073-4.82 6.663-2.747 10.253 1.39 2.407 3.913 3.754 6.507 3.754z"/><path d="m311.664 65.573c1.182.683 2.473 1.007 3.746 1.007 2.594 0 5.117-1.347 6.507-3.754l17.846-30.91c2.073-3.59.843-8.181-2.747-10.253-3.591-2.073-8.181-.843-10.253 2.747l-17.846 30.91c-2.073 3.59-.843 8.18 2.747 10.253z"/></g></g></svg>