<?xml version="1.0"?>
<svg xmlns="http://www.w3.org/2000/svg" xmlns:xlink="http://www.w3.org/1999/xlink" xmlns:svgjs="http://svgjs.com/svgjs" version="1.1" width="512" height="512" x="0" y="0" viewBox="0 0 512.212 512.212" style="enable-background:new 0 0 512 512" xml:space="preserve" class=""><g><g xmlns="http://www.w3.org/2000/svg"><g><path d="m432.55 178.183c-24.102 22.568-24.102 55.929 0 78.507v232.165c0 8.757-7.099 15.856-15.856 15.856h-321.175c-8.757 0-15.856-7.099-15.856-15.856v-232.165c24.102-22.578 24.102-55.929 0-78.507v-17.142c0-38.974 23.644-75.328 63.24-97.249l91.514-50.647c13.495-7.469 29.884-7.469 43.379 0l91.514 50.647c39.595 21.92 63.24 58.275 63.24 97.249z" fill="#28527a" data-original="#978ecb" style="" class=""/><path d="m432.55 178.183v-17.142c0-38.974-23.644-75.328-63.24-97.249l-91.515-50.647c-9.945-5.504-21.46-6.938-32.232-4.329 3.845.931 7.598 2.365 11.147 4.329l91.515 50.647c39.595 21.92 63.24 58.275 63.24 97.249v17.142c-24.102 22.568-24.102 55.929 0 78.507v232.166c0 8.757-7.099 15.856-15.856 15.856h21.084c8.757 0 15.856-7.099 15.856-15.856v-232.166c-24.102-22.577-24.102-55.939.001-78.507z" fill="#8379c1" data-original="#8379c1" style=""/><path d="m263.953 180.961h-27.046c-12.883 0-23.327-10.444-23.327-23.328v-39.192h73.701v39.192c0 12.884-10.444 23.328-23.328 23.328z" fill="#fed2a4" data-original="#fed2a4" style=""/><path d="m266.197 118.441v39.192c0 12.884-10.444 23.328-23.327 23.328h21.084c12.883 0 23.328-10.444 23.328-23.328v-39.192z" fill="#ffbd86" data-original="#ffbd86" style=""/><path d="m256.359 72.877h-11.857c-17.078 0-30.922 13.844-30.922 30.922v14.643h73.701v-14.643c0-17.078-13.844-30.922-30.922-30.922z" fill="#fff3de" data-original="#fff3de" style=""/><path d="m256.359 72.877h-11.857c-1.568 0-3.108.119-4.614.344 14.889 2.228 26.308 15.068 26.308 30.578v14.643h21.084v-14.643c.001-17.078-13.843-30.922-30.921-30.922z" fill="#ffe5c2" data-original="#ffe5c2" style=""/><g><path d="m307.049 349.398h-109.276v-152.745l27.242-15.692h54.682l27.352 15.692z" fill="#fff3de" data-original="#fff3de" style=""/><path d="m279.697 180.961h-21.085l27.353 15.692v152.745h21.084v-152.745z" fill="#ffe5c2" data-original="#ffe5c2" style=""/><path d="m342.611 265.18h25.406c8.938 0 16.184-7.246 16.184-16.184v-87.154c0-3.279-2.658-5.938-5.938-5.938h-29.714c-3.279 0-5.938 2.658-5.938 5.938z" fill="#fff3de" data-original="#fff3de" style=""/><path d="m378.263 155.904h-21.084c3.279 0 5.938 2.658 5.938 5.938v87.154c0 8.938-7.246 16.184-16.184 16.184h21.084c8.938 0 16.184-7.246 16.184-16.184v-87.154c0-3.28-2.659-5.938-5.938-5.938z" fill="#ffe5c2" data-original="#ffe5c2" style=""/><path d="m156.183 349.398h41.59v-152.745l-10.754 7.093c-19.251 12.697-30.836 34.215-30.836 57.276z" fill="#fff3de" data-original="#fff3de" style=""/><path d="m187.019 248.497c-3.744 2.469-7.194 5.277-10.33 8.36v92.542h21.084v-107.995z" fill="#ffe5c2" data-original="#ffe5c2" style=""/><path d="m348.639 265.18h-41.59v-68.527l41.59 27.43z" fill="#fff3de" data-original="#fff3de" style=""/><path d="m378.574 155.904h-30.865v-24.02c0-3.781 3.065-6.845 6.845-6.845h17.174c3.781 0 6.845 3.065 6.845 6.845v24.02z" fill="#fed2a4" data-original="#fed2a4" style=""/></g><path d="m454.636 370.372v4.61c0 11.59-9.39 20.98-20.98 20.98h-355.1c-11.59 0-20.98-9.39-20.98-20.98v-4.61c0-11.58 9.39-20.97 20.98-20.97h355.1c11.59 0 20.98 9.39 20.98 20.97z" fill="#97da7b" data-original="#97da7b" style=""/><path d="m279.906 371.692c0 8.94-2.61 17.27-7.12 24.27h-75.52c-4.51-7-7.12-15.33-7.12-24.27 0-8.11 2.15-15.72 5.91-22.29h77.93c3.77 6.57 5.92 14.181 5.92 22.29z" fill="#80d261" data-original="#80d261" style="" class=""/><path d="m433.656 349.398h-21.084c11.586 0 20.978 9.392 20.978 20.978v4.609c0 11.586-9.392 20.978-20.978 20.978h21.084c11.586 0 20.978-9.392 20.978-20.978v-4.609c0-11.586-9.392-20.978-20.978-20.978z" fill="#80d261" data-original="#80d261" style="" class=""/><path d="m408.259 395.963h-304.306l28.057 51.34h248.192z" fill="#c38f86" data-original="#c38f86" style=""/><path d="m387.174 395.963-28.056 51.34h21.084l28.057-51.34z" fill="#b87d72" data-original="#b87d72" style=""/><path d="m380.662 504.712h-248.439l-.213-57.409h248.192z" fill="#b87d72" data-original="#b87d72" style=""/><path d="m380.202 447.303h-21.084l.459 57.409h21.085z" fill="#ab695d" data-original="#ab695d" style=""/><circle cx="256.106" cy="371.695" fill="#ffe177" r="44.88" data-original="#ffe177" style=""/><path d="m256.106 326.815c-3.632 0-7.16.443-10.542 1.257 19.698 4.744 34.338 22.469 34.338 43.623s-14.64 38.879-34.338 43.623c3.382.815 6.91 1.258 10.542 1.258 24.787 0 44.88-20.094 44.88-44.88 0-24.787-20.093-44.881-44.88-44.881z" fill="#ffd15b" data-original="#ffd15b" style=""/></g><g><path d="m440.046 342.635v-85.942c0-2.074-.858-4.056-2.372-5.474-10.128-9.488-15.705-21.488-15.703-33.79.001-12.297 5.577-24.291 15.702-33.772 1.514-1.418 2.373-3.4 2.373-5.475v-17.14c0-41.743-25.087-80.552-67.108-103.812l-91.511-50.65c-15.855-8.773-34.787-8.772-50.643.001l-91.511 50.65c-42.021 23.26-67.107 62.068-67.107 103.812v17.14c0 2.074.859 4.055 2.372 5.473 10.126 9.488 15.703 21.485 15.703 33.782 0 12.298-5.577 24.295-15.703 33.783-1.513 1.418-2.372 3.398-2.372 5.473v57.271c0 4.143 3.358 7.5 7.5 7.5s7.5-3.357 7.5-7.5v-54.125c11.681-11.99 18.075-26.931 18.075-42.403s-6.394-30.412-18.075-42.402v-13.992c0-36.207 22.195-70.109 59.372-90.688l91.509-50.649c11.309-6.257 24.81-6.257 36.118-.001l91.51 50.65c37.177 20.579 59.372 54.481 59.372 90.688v13.991c-11.681 11.984-18.074 26.921-18.075 42.395-.002 15.477 6.391 30.42 18.075 42.412v82.063h-42.037v-27.589c0-1.989-.79-3.896-2.196-5.304l-19.656-19.656c-2.93-2.928-7.678-2.928-10.607 0-2.929 2.93-2.929 7.678 0 10.607l17.46 17.459v24.482h-53.463v-69.221h53.47c13.057 0 23.68-10.627 23.68-23.689v-87.15c0-4.495-2.225-8.472-5.622-10.913v-19.045c0-7.91-6.436-14.346-14.346-14.346h-16.52v-12.857c0-4.143-3.357-7.5-7.5-7.5s-7.5 3.357-7.5 7.5v46.64c-3.103 2.464-5.103 6.26-5.103 10.521v44.331l-47.208-29.152c4.3-5.3 6.883-12.047 6.883-19.387v-53.835c0-21.186-17.236-38.422-38.422-38.422h-11.857c-21.186 0-38.422 17.236-38.422 38.422v53.835c0 8.047 3.102 15.38 8.169 20.875l-31.359 18.976c-21.419 14.126-34.207 37.878-34.207 63.536v80.882h-70.128c-18.619 0-28.923 16.033-28.48 33.079 0 13.507 9.454 24.839 22.09 27.749v86.122c0 12.881 10.475 23.36 23.35 23.36h321.18c12.876 0 23.351-10.479 23.351-23.36v-86.124c12.636-2.91 22.09-14.242 22.09-27.749.365-14.744-6.623-28.786-22.091-32.346zm-72.03-84.953h-53.47v-47.1l37.144 24.599c3.445 2.299 8.102 1.371 10.401-2.075 2.3-3.445 1.37-8.103-2.075-10.401l-9.91-6.614v-52.687h26.59v85.589c0 4.791-3.894 8.689-8.68 8.689zm3.058-125.143v15.864h-15.865v-15.864zm-149.994-6.598h58.701v31.692c0 8.728-7.1 15.827-15.827 15.827h-27.046c-8.728 0-15.828-7.1-15.828-15.827zm0-22.143c0-12.915 10.507-23.422 23.422-23.422h11.857c12.915 0 23.422 10.507 23.422 23.422v7.143h-58.701zm-57.397 157.223c0-20.602 10.268-39.672 27.465-51.015l35.873-21.544h17.89v52.941c0 4.143 3.358 7.5 7.5 7.5s7.499-3.357 7.499-7.5v-52.941h17.787l21.849 12.534v140.906h-.393c-9.466-13.636-25.227-22.588-43.047-22.588s-33.581 8.952-43.047 22.588h-7.785v-101.962c0-4.143-3.358-7.5-7.5-7.5s-7.5 3.357-7.5 7.5v101.958h-26.59v-80.877zm55.043 110.675c0-20.612 16.769-37.381 37.38-37.381s37.38 16.769 37.38 37.381c0 20.611-16.769 37.38-37.38 37.38s-37.38-16.769-37.38-37.38zm-153.65 3.286c-.536-8.695 3.144-18.079 13.48-18.079h127.311c-3.022 10.246-2.802 21.441.627 31.56h-127.938c-7.433-.001-13.48-6.047-13.48-13.481zm22.09 113.87v-85.39h12.342l25.01 45.775.178 47.975h-29.18c-4.604 0-8.35-3.75-8.35-8.36zm52.372-34.049h25.545l.106 42.409h-25.494zm40.652 42.409-.106-42.409h94.057c4.143 0 7.5-3.357 7.5-7.5s-3.357-7.5-7.5-7.5h-137.686l-19.855-36.341h97.897c9.58 12.519 24.664 20.613 41.609 20.613 16.946 0 32.029-8.095 41.609-20.613h97.897l-19.856 36.341h-64.782c-4.143 0-7.5 3.357-7.5 7.5s3.357 7.5 7.5 7.5h20.903l.229 42.409zm166.917 0-.229-42.409h25.883l.34 42.409zm69.589 0h-28.594l-.385-48.016 24.988-45.734h12.341v85.39c0 4.61-3.746 8.36-8.35 8.36zm30.44-122.23c0 7.434-6.047 13.48-13.48 13.48h-25.399-102.539c3.804-11.225 1.134-21.717 1.329-31.56h126.609c10.336.001 14.016 9.384 13.48 18.08z" fill="#000000" data-original="#000000" style=""/><path d="m246.875 379.196h18.461c4.143 0 7.5-3.357 7.5-7.5s-3.357-7.5-7.5-7.5h-18.461c-4.142 0-7.5 3.357-7.5 7.5s3.358 7.5 7.5 7.5z" fill="#000000" data-original="#000000" style=""/></g></g></g></svg>
