<?xml version="1.0"?>
<svg xmlns="http://www.w3.org/2000/svg" xmlns:xlink="http://www.w3.org/1999/xlink" xmlns:svgjs="http://svgjs.com/svgjs" version="1.1" width="512" height="512" x="0" y="0" viewBox="0 0 512 512" style="enable-background:new 0 0 512 512" xml:space="preserve" class=""><g><g xmlns="http://www.w3.org/2000/svg"><path d="m7.517 290.653v-165.345c0-11.901 12.691-19.502 23.183-13.885l225.3 120.611 225.111-120.503c10.54-5.642 23.276 2.054 23.182 14.008l-1.234 158.09-247.051 115.847z" fill="#ac5e2e" data-original="#ac5e2e" style=""/><path d="m456.904 288.847-200.904 94.9-200.904-94.9c-3.032-1.432-4.967-4.485-4.967-7.839v-30.382l205.871 97.687 205.87-97.686v30.382c0 3.353-1.934 6.406-4.966 7.838z" fill="#28527a" data-original="#6ed5a1" style="" class=""/><path d="m461.87 250.627-205.87 97.686-205.87-97.686v-169.307c0-2.222 2.331-3.673 4.325-2.692l201.545 99.202 201.545-99.201c1.994-.981 4.325.47 4.325 2.692z" fill="#ebebeb" data-original="#ebebeb" style="" class=""/><path d="m495.903 303.6-422.261 199.46c-7.491 3.538-16.431.334-19.97-7.156-3.538-7.491-.334-16.431 7.156-19.97l422.262-199.46c7.491-3.538 16.431-.334 19.97 7.156 3.538 7.491.334 16.431-7.157 19.97z" fill="#d77f4a" data-original="#d77f4a" style="" class=""/><path d="m16.097 303.6 422.262 199.46c7.491 3.538 16.431.334 19.97-7.156 3.538-7.491.334-16.431-7.156-19.97l-422.263-199.46c-7.491-3.538-16.431-.334-19.97 7.156-3.538 7.491-.334 16.431 7.157 19.97z" fill="#c86d36" data-original="#c86d36" style=""/><path d="m256 348.313v-170.483l-106.876-169.415c-1.084-1.671-3.678-.903-3.678 1.089v182.924c0 .422.133.832.381 1.174z" fill="#e2e2e2" data-original="#e2e2e2" style=""/><path d="m256 348.313v-170.483l106.876-169.415c1.084-1.671 3.678-.903 3.678 1.089v182.924c0 .422-.133.832-.381 1.174z" fill="#e2e2e2" data-original="#e2e2e2" style=""/><path d="m265.242 493.385h-18.674c-2.023 0-3.663-1.64-3.663-3.663v-28.26c0-7.18 5.82-13 13-13 7.18 0 13 5.82 13 13v28.26c0 2.023-1.64 3.663-3.663 3.663z" fill="#eb5569" data-original="#eb5569" style=""/><path d="m510.582 282.17 1.222-156.57c.064-8.287-4.131-15.794-11.225-20.08-7.092-4.286-15.69-4.511-22.998-.599l-8.202 4.39v-27.988c0-3.652-1.851-6.985-4.951-8.914-3.103-1.93-6.909-2.12-10.187-.506l-80.182 39.463v-101.858c0-4.244-2.734-7.904-6.804-9.109-4.067-1.205-8.356.378-10.717 4.018l-100.538 159.357-100.59-159.437c-2.309-3.559-6.594-5.143-10.666-3.937-4.07 1.205-6.804 4.865-6.804 9.109v45.321c.344 9.931 14.66 9.923 15.001 0v-26.296l95.558 151.464v144.85l-95.558-134.179v-100.679c-.344-9.931-14.66-9.923-15.001 0v21.376l-80.182-39.463c-3.277-1.614-7.084-1.424-10.186.506-3.101 1.93-4.951 5.262-4.951 8.914v27.98l-8.39-4.491c-15.128-8.409-34.501 3.196-34.225 20.498v164.21c-.184 8.61 4.601 16.949 12.878 20.858l124.54 58.823c3.746 1.769 8.216.167 9.985-3.579 1.77-3.745.167-8.215-3.578-9.984l-124.54-58.823c-2.728-1.289-4.312-4.021-4.288-6.857 0-.03.005-.06.005-.09v-.221c.048-.95.275-1.905.705-2.817 1.767-3.74 6.244-5.344 9.986-3.578l26.098 12.327c.031.015.059.032.09.047l196.615 92.867v16.584l-73.023-34.491c-9.124-3.929-15.235 9.015-6.407 13.563l34.248 16.176-145.704 68.82c-11.218 5.299-16.034 18.736-10.735 29.954 5.313 11.329 18.984 15.987 29.955 10.735l171.663-81.081v13.609c-7.65 2.978-13.095 10.404-13.095 19.094v28.26c0 6.155 5.008 11.163 11.164 11.163h18.675c6.156 0 11.164-5.008 11.164-11.163v-28.26c0-8.619-5.354-15.999-12.906-19.024v-13.679l171.663 81.081c5.442 2.572 11.556 2.861 17.201.836 5.658-2.027 10.188-6.137 12.754-11.57 5.299-11.218.483-24.655-10.735-29.954l-145.701-68.819 135.916-64.197c3.745-1.77 5.348-6.24 3.578-9.985-1.769-3.746-6.241-5.345-9.985-3.579l-147.07 69.466-17.556-8.292 186.55-88.113c.03-.014.059-.032.089-.046l26.099-12.327c1.811-.856 3.848-.955 5.734-.279 1.887.676 3.397 2.045 4.252 3.856 1.766 3.74.161 8.219-3.578 9.985l-22.872 10.803c-3.745 1.769-5.348 6.24-3.578 9.985 1.769 3.746 6.24 5.345 9.985 3.579l22.872-10.803c10.64-5.028 15.513-17.378 11.463-28.21zm-452.961-1.164v-18.521l190.878 90.566v18.849l-190.227-89.85c-.395-.196-.651-.602-.651-1.044zm205.879 90.894v-18.849l190.878-90.566v18.521c0 .441-.255.846-.649 1.043zm190.878-283.347v157.329l-38.79 18.405-136.752 64.885 93.417-131.173c1.182-1.632 1.806-3.559 1.806-5.571v-64.343zm-95.32-60.02v162.136l-95.558 134.179v-144.85zm-301.437 60.02 80.32 39.531v64.344c0 2.013.624 3.939 1.772 5.524l93.451 131.22-136.753-64.885-38.79-18.405zm-42.615 180.269v-143.513c0-4.22 2.805-6.355 4.011-7.077 1.207-.723 4.414-2.186 8.133-.196l15.47 8.281v148.34l-10.517-4.967c-5.4-2.551-11.468-2.856-17.097-.868zm55.424 227.448c-1.813.855-3.85.954-5.734.278-1.887-.676-3.397-2.045-4.252-3.856-1.766-3.74-.161-8.219 3.578-9.985l156.856-74.087 17.561 8.294zm190.975-10.393h-11v-24.423c.232-7.27 10.771-7.265 11 0zm190.15 6.815c-1.768 3.74-6.246 5.343-9.986 3.578l-178.069-84.107v-16.589l184.477 87.133c3.739 1.767 5.344 6.246 3.578 9.985zm28.341-223.002-10.517 4.968v-148.333l15.28-8.179c3.737-2.001 6.951-.518 8.161.212 1.209.73 4.016 2.887 3.983 7.125l-1.116 142.942c-5.255-1.511-10.805-1.091-15.791 1.265z" fill="#000000" data-original="#000000" style="" class=""/></g></g></svg>
